<svg width="24" height="21" viewBox="0 0 24 21" fill="none" xmlns="http://www.w3.org/2000/svg">
<path d="M6 13.5002C6 13.1024 6.15804 12.7208 6.43934 12.4395C6.72064 12.1582 7.10218 12.0002 7.5 12.0002C7.89782 12.0002 8.27936 12.1582 8.56066 12.4395C8.84196 12.7208 9 13.1024 9 13.5002V16.5002C9 16.898 8.84196 17.2795 8.56066 17.5608C8.27936 17.8421 7.89782 18.0002 7.5 18.0002C7.10218 18.0002 6.72064 17.8421 6.43934 17.5608C6.15804 17.2795 6 16.898 6 16.5002V13.5002ZM10.5 13.5002C10.5 13.1024 10.658 12.7208 10.9393 12.4395C11.2206 12.1582 11.6022 12.0002 12 12.0002C12.3978 12.0002 12.7794 12.1582 13.0607 12.4395C13.342 12.7208 13.5 13.1024 13.5 13.5002V16.5002C13.5 16.898 13.342 17.2795 13.0607 17.5608C12.7794 17.8421 12.3978 18.0002 12 18.0002C11.6022 18.0002 11.2206 17.8421 10.9393 17.5608C10.658 17.2795 10.5 16.898 10.5 16.5002V13.5002ZM15 13.5002C15 13.1024 15.158 12.7208 15.4393 12.4395C15.7206 12.1582 16.1022 12.0002 16.5 12.0002C16.8978 12.0002 17.2794 12.1582 17.5607 12.4395C17.842 12.7208 18 13.1024 18 13.5002V16.5002C18 16.898 17.842 17.2795 17.5607 17.5608C17.2794 17.8421 16.8978 18.0002 16.5 18.0002C16.1022 18.0002 15.7206 17.8421 15.4393 17.5608C15.158 17.2795 15 16.898 15 16.5002V13.5002Z" fill="white"/>
<path d="M8.6355 0.106685C8.72002 0.157297 8.79374 0.224064 8.85245 0.303173C8.91116 0.382282 8.95371 0.472182 8.97767 0.567738C9.00163 0.663294 9.00652 0.762635 8.99208 0.860085C8.97764 0.957534 8.94414 1.05118 8.8935 1.13569L5.0745 7.50019H18.9255L15.105 1.13569C15.0028 0.965018 14.9725 0.760727 15.0209 0.567752C15.0693 0.374777 15.1923 0.208926 15.363 0.106685C15.5337 0.00444421 15.738 -0.025812 15.9309 0.0225723C16.1239 0.0709567 16.2898 0.194018 16.392 0.364685L20.6745 7.50019H23.25C23.4489 7.50019 23.6397 7.5792 23.7803 7.71986C23.921 7.86051 24 8.05127 24 8.25019V9.75019C24 9.9491 23.921 10.1399 23.7803 10.2805C23.6397 10.4212 23.4489 10.5002 23.25 10.5002H22.3155L19.5495 20.1842C19.4823 20.4195 19.3402 20.6264 19.1448 20.7737C18.9493 20.9209 18.7112 21.0005 18.4665 21.0002H5.535C5.2903 21.0005 5.05218 20.9209 4.85674 20.7737C4.66131 20.6264 4.51921 20.4195 4.452 20.1842L1.6845 10.5002H0.75C0.551088 10.5002 0.360322 10.4212 0.21967 10.2805C0.0790176 10.1399 0 9.9491 0 9.75019V8.25019C0 8.05127 0.0790176 7.86051 0.21967 7.71986C0.360322 7.5792 0.551088 7.50019 0.75 7.50019H3.3255L7.605 0.364685C7.65561 0.280166 7.72238 0.206446 7.80149 0.147736C7.8806 0.0890265 7.9705 0.0464767 8.06605 0.022518C8.16161 -0.00144074 8.26095 -0.00633907 8.3584 0.00810254C8.45585 0.0225442 8.551 0.0560428 8.6355 0.106685ZM3.2445 10.5002L5.8155 19.5002H18.1845L20.7555 10.5002H3.2445Z" fill="white"/>
</svg>
