<svg width="31" height="31" viewBox="0 0 31 31" fill="none" xmlns="http://www.w3.org/2000/svg">
<path d="M3.83243 20.1202C3.83243 19.8661 3.93337 19.6224 4.11305 19.4428C4.29273 19.2631 4.53643 19.1621 4.79053 19.1621H10.5392C10.7933 19.1621 11.037 19.2631 11.2167 19.4428C11.3963 19.6224 11.4973 19.8661 11.4973 20.1202C11.4973 20.3744 11.3963 20.6181 11.2167 20.7977C11.037 20.9774 10.7933 21.0784 10.5392 21.0784H4.79053C4.53643 21.0784 4.29273 20.9774 4.11305 20.7977C3.93337 20.6181 3.83243 20.3744 3.83243 20.1202ZM3.83243 14.3716C3.83243 14.1175 3.93337 13.8738 4.11305 13.6941C4.29273 13.5144 4.53643 13.4135 4.79053 13.4135H18.204C18.4581 13.4135 18.7018 13.5144 18.8815 13.6941C19.0612 13.8738 19.1621 14.1175 19.1621 14.3716C19.1621 14.6257 19.0612 14.8694 18.8815 15.0491C18.7018 15.2288 18.4581 15.3297 18.204 15.3297H4.79053C4.53643 15.3297 4.29273 15.2288 4.11305 15.0491C3.93337 14.8694 3.83243 14.6257 3.83243 14.3716ZM3.83243 8.62296C3.83243 8.36886 3.93337 8.12516 4.11305 7.94548C4.29273 7.7658 4.53643 7.66486 4.79053 7.66486H25.8689C26.123 7.66486 26.3667 7.7658 26.5464 7.94548C26.7261 8.12516 26.827 8.36886 26.827 8.62296C26.827 8.87707 26.7261 9.12077 26.5464 9.30045C26.3667 9.48013 26.123 9.58107 25.8689 9.58107H4.79053C4.53643 9.58107 4.29273 9.48013 4.11305 9.30045C3.93337 9.12077 3.83243 8.87707 3.83243 8.62296Z" fill="white"/>
</svg>
