<svg width="30" height="30" viewBox="0 0 30 30" fill="none" xmlns="http://www.w3.org/2000/svg">
<path fill-rule="evenodd" clip-rule="evenodd" d="M3.53428 0.956569C3.86236 0.628986 4.25631 0.374866 4.69003 0.211051C5.12374 0.047235 5.58732 -0.0225356 6.05004 0.00636228C6.51276 0.0352602 6.96406 0.162167 7.37402 0.378672C7.78399 0.595177 8.14326 0.896337 8.42803 1.26219L11.7937 5.58594C12.4105 6.37907 12.628 7.41219 12.3843 8.38719L11.3587 12.4934C11.306 12.7061 11.309 12.9288 11.3675 13.14C11.426 13.3512 11.5379 13.5437 11.6924 13.6991L16.2993 18.3059C16.4548 18.4608 16.6477 18.5729 16.8592 18.6314C17.0708 18.6898 17.2938 18.6927 17.5068 18.6397L21.6112 17.6141C22.0924 17.4945 22.5944 17.4855 23.0796 17.5878C23.5648 17.6901 24.0205 17.901 24.4124 18.2047L28.7362 21.5684C30.2905 22.7778 30.433 25.0747 29.0418 26.4641L27.103 28.4028C25.7155 29.7903 23.6418 30.3997 21.7087 29.7191C16.7599 27.9802 12.2672 25.1474 8.56491 21.4316C4.84935 17.7298 2.01657 13.2378 0.277406 8.28969C-0.401344 6.35844 0.208031 4.28282 1.59553 2.89532L3.53428 0.956569Z" fill="white"/>
</svg>
